<?xml version="1.0" encoding="UTF-8"?>
<svg width="512px" height="512px" viewBox="0 0 512 512" version="1.1" xmlns="http://www.w3.org/2000/svg" xmlns:xlink="http://www.w3.org/1999/xlink">
    <!-- Generator: Sketch 51.2 (57519) - http://www.bohemiancoding.com/sketch -->
    <title>Black Logo</title>
    <desc>Created with Sketch.</desc>
    <defs></defs>
    <g id="Black-Logo" stroke="none" stroke-width="1" fill="none" fill-rule="evenodd">
        <g id="Group" transform="translate(0.000000, 63.000000)" fill="#111111">
            <path d="M179.84,180.1 C174.286639,175.526644 166.283386,171.116688 155.83,166.87 C145.376614,162.623312 133.943395,160.5 121.53,160.5 C108.463268,160.5 97.2750466,162.86831 87.965,167.605 C78.6549534,172.34169 71.0600294,178.874958 65.18,187.205 C59.2999706,195.535042 55.0533464,205.41661 52.44,216.85 C49.8266536,228.28339 48.52,240.533268 48.52,253.6 C48.52,283.326815 55.8699265,306.274919 70.57,322.445 C85.2700735,338.615081 104.869878,346.7 129.37,346.7 C141.783395,346.7 152.154958,346.128339 160.485,344.985 C168.815042,343.841661 175.266644,342.616673 179.84,341.31 L179.84,180.1 Z M179.84,8.6 L225.41,0.76 L225.41,373.65 C214.956614,376.590015 201.563415,379.529985 185.23,382.47 C168.896585,385.410015 150.113439,386.88 128.88,386.88 C109.279902,386.88 91.6400784,383.776698 75.96,377.57 C60.2799216,371.363302 46.8867222,362.54339 35.78,351.11 C24.6732778,339.676609 16.0983636,325.711749 10.055,309.215 C4.01163645,292.718251 0.99,274.180103 0.99,253.6 C0.99,233.999902 3.52164135,216.033415 8.585,199.7 C13.6483586,183.366585 21.079951,169.320059 30.88,157.56 C40.680049,145.799941 52.6849289,136.653366 66.895,130.12 C81.105071,123.586634 97.3565752,120.32 115.65,120.32 C130.350073,120.32 143.334944,122.27998 154.605,126.2 C165.875056,130.12002 174.286639,133.876649 179.84,137.47 L179.84,8.6 Z" id="d"></path>
            <path d="M355.63,386.94 C348.769966,386.94 341.338373,386.776668 333.335,386.45 C325.331627,386.123332 317.328373,385.633337 309.325,384.98 C301.321627,384.326663 293.400039,383.510005 285.56,382.53 C277.719961,381.549995 270.533366,380.243342 264,378.61 L264,49.33 C270.533366,47.6966585 277.719961,46.3900049 285.56,45.41 C293.400039,44.4299951 301.321627,43.6133366 309.325,42.96 C317.328373,42.3066634 325.249961,41.8166683 333.09,41.49 C340.930039,41.1633317 348.279966,41 355.14,41 C374.740098,41 393.114914,42.4699853 410.265,45.41 C427.415086,48.3500147 442.27827,53.3316315 454.855,60.355 C467.43173,67.3783685 477.313297,76.6066095 484.5,88.04 C491.686703,99.4733905 495.28,113.519917 495.28,130.18 C495.28,148.800093 490.870044,164.071607 482.05,175.995 C473.229956,187.918393 461.470074,196.819971 446.77,202.7 C466.696766,208.580029 482.539941,217.889936 494.3,230.63 C506.060059,243.370064 511.94,261.336551 511.94,284.53 C511.94,318.503503 499.445125,344.064914 474.455,361.215 C449.464875,378.365086 409.856938,386.94 355.63,386.94 Z M311.04,225.73 L311.04,345.29 C314.633351,345.616668 318.879976,345.943332 323.78,346.27 C328.026688,346.596668 333.008305,346.841666 338.725,347.005 C344.441695,347.168334 351.056629,347.25 358.57,347.25 C372.616737,347.25 385.92827,346.351676 398.505,344.555 C411.08173,342.758324 422.106619,339.573356 431.58,335 C441.053381,330.426644 448.648305,324.056708 454.365,315.89 C460.081695,307.723292 462.94,297.433395 462.94,285.02 C462.94,273.913278 460.816688,264.521705 456.57,256.845 C452.323312,249.168295 446.198373,243.043356 438.195,238.47 C430.191627,233.896644 420.636722,230.63001 409.53,228.67 C398.423278,226.70999 386.010069,225.73 372.29,225.73 L311.04,225.73 Z M311.04,187.51 L361.02,187.51 C372.780059,187.51 383.886614,186.693341 394.34,185.06 C404.793386,183.426659 413.858295,180.486688 421.535,176.24 C429.211705,171.993312 435.254978,166.440034 439.665,159.58 C444.075022,152.719966 446.28,144.063386 446.28,133.61 C446.28,123.809951 443.993356,115.5617 439.42,108.865 C434.846644,102.1683 428.558373,96.7783537 420.555,92.695 C412.551627,88.6116462 403.160054,85.5900098 392.38,83.63 C381.599946,81.6699902 370.166727,80.69 358.08,80.69 C345.993273,80.69 336.520034,80.8533317 329.66,81.18 C322.799966,81.5066683 316.593361,81.9966634 311.04,82.65 L311.04,187.51 Z" id="B"></path>
        </g>
    </g>
</svg>